<?xml version="1.0" encoding="UTF-8"?>
<svg width="13px" height="16px" viewBox="0 0 13 16" version="1.1" xmlns="http://www.w3.org/2000/svg" xmlns:xlink="http://www.w3.org/1999/xlink">
    <!-- Generator: Sketch 54.1 (76490) - https://sketchapp.com -->
    <title>Page 1</title>
    <desc>Created with Sketch.</desc>
    <defs>
        <path d="M5.58458703,0.0162730375 C4.89724346,0.0162730375 4.27988396,0.36843686 3.97189192,0.936354949 L3.74902844,1.34778157 L1.80819795,1.34778157 C0.813631399,1.34778157 0.00513196815,2.09477133 0.00513196815,3.01215017 L0.00513196815,3.67789761 C0.00513196815,3.86163823 0.166707622,4.01078498 0.365759954,4.01078498 L12.6266678,4.01078498 C12.8257349,4.01078498 12.9872958,3.86163823 12.9872958,3.67789761 L12.9872958,3.01215017 C12.9872958,2.09477133 12.1787816,1.34778157 11.1842298,1.34778157 L9.24339932,1.34778157 L9.01979636,0.936354949 C8.7125438,0.36843686 8.0944744,0.0162730375 7.40713083,0.0162730375 L5.58458703,0.0162730375 Z M0.726343572,3.01215017 C0.726343572,2.46156997 1.21175085,2.01352901 1.80819795,2.01352901 L3.97189192,2.01352901 C4.10820705,2.01352901 4.23298635,1.94227986 4.29428896,1.82977474 L4.61741069,1.23395222 C4.80133333,0.893720137 5.17203299,0.682020478 5.58529693,0.682020478 L7.40784073,0.682020478 C7.82039477,0.682020478 8.19109443,0.893720137 8.37575654,1.23395222 L8.69813879,1.82977474 C8.75944141,1.94227986 8.88422071,2.01352901 9.02053584,2.01352901 L11.1842298,2.01352901 C11.7806621,2.01352901 12.2660694,2.46156997 12.2660694,3.01215017 L12.2660694,3.34505119 L0.726343572,3.34505119 L0.726343572,3.01215017 Z" id="path-1"></path>
        <path d="M1.08698635,3.34505119 C0.887919226,3.34505119 0.726343572,3.49414334 0.726343572,3.67789761 L0.726343572,13.6641911 C0.726343572,14.9491058 1.85870421,15.9943208 3.25066553,15.9943208 L9.74174744,15.9943208 C11.1337088,15.9943208 12.2660694,14.9491058 12.2660694,13.6641911 L12.2660694,3.67789761 C12.2660694,3.49414334 12.1045085,3.34505119 11.9054562,3.34505119 L1.08698635,3.34505119 Z M1.44759954,13.6641911 L1.44759954,4.01078498 L11.5448282,4.01078498 L11.5448282,13.6641911 C11.5448282,14.5816109 10.7363436,15.3285734 9.74174744,15.3285734 L3.25066553,15.3285734 C2.25608419,15.3285734 1.44759954,14.5816109 1.44759954,13.6641911 Z" id="path-3"></path>
    </defs>
    <g id="Page-1" stroke="none" stroke-width="1" fill="none" fill-rule="evenodd">
        <g>
            <mask id="mask-2" fill="white">
                <use xlink:href="#path-1"></use>
            </mask>
            <use id="Clip-2" fill="#8C8582" xlink:href="#path-1"></use>
            <mask id="mask-4" fill="white">
                <use xlink:href="#path-3"></use>
            </mask>
            <use id="Clip-5" fill="#8C8582" xlink:href="#path-3"></use>
            <path d="M6.87266371,6.3803058 L6.87266371,12.9590498 C6.87266371,13.135241 6.71456359,13.2811386 6.52377861,13.2811386 C6.33321547,13.2811386 6.17484915,13.135241 6.17484915,12.9590498 L6.17484915,6.3803058 C6.17484915,6.20419659 6.33321547,6.05821706 6.52377861,6.05821706 C6.71456359,6.05821706 6.87266371,6.20419659 6.87266371,6.3803058" id="Fill-7" fill="#8C8582"></path>
            <path d="M8.94857736,6.3803058 L8.94857736,12.9590498 C8.94857736,13.135241 8.79047725,13.2811386 8.59969226,13.2811386 C8.40912912,13.2811386 8.2507628,13.135241 8.2507628,12.9590498 L8.2507628,6.3803058 C8.2507628,6.20419659 8.40912912,6.05821706 8.59969226,6.05821706 C8.79047725,6.05821706 8.94857736,6.20419659 8.94857736,6.3803058" id="Fill-9" fill="#8C8582"></path>
            <path d="M4.741662,6.3803058 L4.741662,12.9590498 C4.741662,13.135241 4.58356189,13.2811386 4.39273254,13.2811386 C4.2021694,13.2811386 4.04384744,13.135241 4.04384744,12.9590498 L4.04384744,6.3803058 C4.04384744,6.20419659 4.2021694,6.05821706 4.39273254,6.05821706 C4.58356189,6.05821706 4.741662,6.20419659 4.741662,6.3803058" id="Fill-11" fill="#8C8582"></path>
        </g>
    </g>
</svg>