<?xml version="1.0" encoding="UTF-8"?>
<svg width="16px" height="16px" viewBox="0 0 16 16" version="1.1" xmlns="http://www.w3.org/2000/svg" xmlns:xlink="http://www.w3.org/1999/xlink">
    <!-- Generator: Sketch 54.1 (76490) - https://sketchapp.com -->
    <title>Edit</title>
    <desc>Created with Sketch.</desc>
    <g id="Page-1" stroke="none" stroke-width="1" fill="none" fill-rule="evenodd">
        <g id="Edit" fill="#8C8582">
            <path d="M7.48791858,4.77634606 L5.94084478,6.32341985 C5.37087023,6.8933944 4.79755725,7.46336896 4.23092112,8.03985751 C4.09734351,8.17661069 3.99633588,8.35904326 3.9572112,8.53825954 C3.75206107,9.47940967 3.55342494,10.4207226 3.35462595,11.3620356 L3.24396947,11.8831959 C3.19177608,12.137201 3.26017303,12.3913282 3.43287532,12.5638677 C3.56649364,12.6974453 3.75206107,12.7723562 3.94752163,12.7723562 C4.00284987,12.7723562 4.05821883,12.7658422 4.11354707,12.7559898 L4.68686005,12.6356031 C5.59877863,12.4433181 6.51399491,12.2478575 7.42587277,12.0591145 C7.63774046,12.0134351 7.81679389,11.9189822 7.9699542,11.7658219 C10.5299135,9.20268702 13.0898728,6.6426056 15.6497913,4.08598473 C15.8387379,3.89703817 15.943084,3.67234606 15.9689771,3.39546056 C15.9723155,3.34982188 15.9689771,3.30418321 15.9592875,3.26188295 C15.943084,3.19682443 15.9300153,3.12826463 15.9136489,3.06324682 C15.8778626,2.89705852 15.8387379,2.70827481 15.7606514,2.52584224 C15.2817913,1.43140967 14.4871247,0.64973028 13.3993282,0.210035623 C13.1811501,0.12205598 12.9497405,0.0928244275 12.7479288,0.0667277354 L12.6926005,0.0602137405 C12.3993486,0.0244274809 12.1323155,0.12205598 11.9010687,0.356641221 C10.4354198,1.82880407 8.95991858,3.30418321 7.48791858,4.77634606 Z M12.5850789,0.84519084 L12.6013232,0.84519084 L12.6566514,0.851704835 C12.8260153,0.871287532 12.9823511,0.890829517 13.1062392,0.942860051 C13.9920611,1.30112977 14.6434606,1.93950127 15.0375165,2.83851399 C15.0831552,2.9426972 15.1124275,3.07627481 15.1418626,3.21620356 C15.1515522,3.26839695 15.1645802,3.32054962 15.1743104,3.37253944 C15.1612417,3.43124682 15.1385242,3.4703715 15.0928855,3.51267176 C12.5297506,6.06941476 9.9696285,8.63271247 7.40966921,11.1926718 C7.36736896,11.234972 7.32824427,11.2545547 7.26957761,11.2675827 C6.35432061,11.4597048 5.44244275,11.6519898 4.52718575,11.8440712 L4.04515013,11.9450789 L4.13646819,11.5183715 C4.33506361,10.5803969 4.53369975,9.63908397 4.7356743,8.70110941 C4.7421883,8.6716743 4.76828499,8.62619847 4.79755725,8.59358779 C5.36435623,8.02027481 5.93099237,7.45030025 6.50096692,6.88366412 L8.04804071,5.33659033 C9.52354198,3.86108906 10.9988804,2.38575064 12.4710433,0.907073791 C12.5329262,0.854880407 12.5621985,0.84519084 12.5850789,0.84519084 Z" id="Fill-1"></path>
            <path d="M1.26701272,3.60394911 L6.95373028,3.60394911 C7.17508397,3.60394911 7.35434097,3.42473282 7.35434097,3.20317557 C7.35434097,2.98182188 7.17508397,2.80256489 6.95373028,2.80256489 L1.26701272,2.80256489 C0.566798982,2.80256489 0,3.37253944 0,4.06957761 L0,14.7330687 C0,15.4332824 0.569974555,15.9999186 1.26701272,15.9999186 L11.9271654,15.9999186 C12.6273791,15.9999186 13.1940153,15.429944 13.1940153,14.7330687 L13.1940153,9.27759796 C13.1940153,9.05608142 13.0149618,8.87698728 12.7934046,8.87698728 C12.5720509,8.87698728 12.3927939,9.05608142 12.3927939,9.27759796 L12.3927939,14.7330687 C12.3927939,14.9904122 12.1811298,15.2020763 11.923827,15.2020763 L1.26701272,15.2020763 C1.00970992,15.2020763 0.798045802,14.9904122 0.798045802,14.7330687 L0.798045802,4.07291603 C0.798045802,3.81561323 1.00970992,3.60394911 1.26701272,3.60394911 Z" id="Fill-3"></path>
        </g>
    </g>
</svg>