<?xml version="1.0" encoding="UTF-8"?>
<svg width="23px" height="20px" viewBox="0 0 23 20" version="1.1" xmlns="http://www.w3.org/2000/svg" xmlns:xlink="http://www.w3.org/1999/xlink">
    <!-- Generator: Sketch 55 (78076) - https://sketchapp.com -->
    <title>Group 18</title>
    <desc>Created with Sketch.</desc>
    <defs>
        <polygon id="path-1" points="0 0.0436504032 22.4070416 0.0436504032 22.4070416 19.9562363 0 19.9562363"></polygon>
    </defs>
    <g id="Page-1" stroke="none" stroke-width="1" fill="none" fill-rule="evenodd">
        <g id="Payment-Option---Transfer---first-time" transform="translate(-284.000000, -196.000000)">
            <g id="Group-18" transform="translate(284.000000, 196.000000)">
                <path d="M19.0157462,2.12217943 L3.39211379,2.12217943 L2.95447702,2.12217943 L2.0792035,2.12217943 C1.11202626,2.12217943 0.328218818,2.90598687 0.328218818,3.87272648 C0.328218818,4.83946608 1.11202626,5.62327352 2.0792035,5.62327352 L19.0157462,5.62327352 C19.9824858,5.62327352 20.7662932,6.40708096 20.7662932,7.37382057 L20.7662932,3.87272648 C20.7662932,2.90598687 19.9824858,2.12217943 19.0157462,2.12217943" id="Fill-1" fill="#F283A6"></path>
                <path d="M20.7662932,17.8775711 C20.7662932,18.8443107 19.9824858,19.6281182 19.0157462,19.6281182 L2.0792035,19.6281182 C1.11246389,19.6281182 0.328656455,18.8443107 0.328656455,17.8775711 L0.328218818,17.8775711 L0.328218818,3.87271335 C0.328218818,4.83945295 1.11202626,5.62326039 2.0792035,5.62326039 L19.0157462,5.62326039 C19.9824858,5.62326039 20.7662932,6.40706783 20.7662932,7.37380744 L20.7662932,17.8775711 Z" id="Fill-3" fill="#F283A6"></path>
                <path d="M22.0787746,9.343186 L22.0787746,14.5948271 C22.0787746,14.9571466 21.7846827,15.2512823 21.4223195,15.2512823 L20.766302,15.2512823 L16.8266958,15.2512823 L15.0765864,12.6254617 L16.8266958,9.99964114 L20.766302,9.99964114 L21.4223195,9.99964114 L21.4223195,9.9992035 C21.7846827,9.9992035 22.0787746,9.70550547 22.0787746,9.343186" id="Fill-5" fill="#F7C2D9"></path>
                <polygon id="Fill-7" fill="#FFFFFF" points="16.083151 3.87319475 2.95448578 3.87319475 3.39212254 2.1221663 3.82932166 0.371619256 9.95536105 2.1221663"></polygon>
                <path d="M18.1400438,11.7501882 C18.6236324,11.7501882 19.0153173,12.1423107 19.0153173,12.6254617 C19.0153173,13.1090503 18.6236324,13.5007352 18.1400438,13.5007352 C17.6564551,13.5007352 17.2647702,13.1090503 17.2647702,12.6254617 C17.2647702,12.1423107 17.6564551,11.7501882 18.1400438,11.7501882" id="Fill-9" fill="#F283A6"></path>
                <g id="Group-13" transform="translate(0.000000, 0.000131)">
                    <mask id="mask-2" fill="white">
                        <use xlink:href="#path-1"></use>
                    </mask>
                    <g id="Clip-12"></g>
                    <path d="M21.0943501,9.01486652 L21.4224026,9.01486652 C21.6032779,9.01486652 21.7504551,9.16204376 21.7504551,9.34291904 C21.7504551,9.52379431 21.6032779,9.67097155 21.4224026,9.67097155 C21.4201269,9.67097155 21.417895,9.6712779 21.4156193,9.67132166 L21.0943501,9.67132166 L21.0943501,9.01486652 Z M19.0155755,5.29473523 C19.0150066,5.29473523 19.0144814,5.29482276 19.0138687,5.29482276 L2.07898906,5.29482276 C1.29470022,5.29482276 0.656625821,4.65674836 0.656625821,3.87245952 C0.656625821,3.08817068 1.29470022,2.45009628 2.07898906,2.45009628 L2.97168053,2.45009628 L2.69815755,3.54458206 L2.07907659,3.54458206 C1.89780744,3.54458206 1.75084902,3.69154048 1.75084902,3.87280963 C1.75084902,4.05407877 1.89780744,4.2010372 2.07907659,4.2010372 L2.95329978,4.2010372 C2.95373742,4.2010372 2.95421882,4.20112473 2.95470022,4.20112473 C2.95505033,4.20112473 2.95540044,4.2010372 2.95570678,4.2010372 L16.0822276,4.2010372 C16.0826652,4.2010372 16.0830591,4.20112473 16.083453,4.20112473 C16.0838031,4.20112473 16.0841532,4.2010372 16.0845033,4.2010372 L18.5775449,4.2010372 C18.758814,4.2010372 18.9057724,4.05407877 18.9057724,3.87280963 C18.9057724,3.69154048 18.758814,3.54458206 18.5775449,3.54458206 L16.1292735,3.54458206 L12.2986827,2.45009628 L19.0155317,2.45009628 C19.7997768,2.45009628 20.4378512,3.08817068 20.4378512,3.87245952 L20.4378512,5.859593 C20.0657287,5.50974617 19.5654223,5.29473523 19.0155755,5.29473523 L19.0155755,5.29473523 Z M4.06564114,0.780512035 L9.85728228,2.43530416 C9.85754486,2.43539168 9.8578512,2.43543545 9.85811379,2.43552298 L13.7397768,3.54458206 L3.37478775,3.54458206 L4.06564114,0.780512035 Z M21.7504551,14.5947352 C21.7504551,14.7756105 21.6032779,14.9227877 21.4224026,14.9227877 L17.0025339,14.9227877 L15.470849,12.6254573 L17.0025339,10.3277768 L21.4224026,10.3277768 C21.4269978,10.3277768 21.4314617,10.3272516 21.4360131,10.3270766 C21.5461225,10.3255449 21.6518556,10.3059387 21.7504551,10.2710153 L21.7504551,14.5947352 Z M21.4224026,8.35841138 L21.0943501,8.35841138 L21.0943501,7.37355361 L21.0943501,3.87245952 C21.0943501,2.72624508 20.1617899,1.79364114 19.0155755,1.79364114 L10.0011772,1.79364114 L3.91964551,0.05604814 C3.91789497,0.0555667396 3.91610066,0.0553041575 3.91435011,0.0548665208 C3.9125558,0.0543413567 3.91084902,0.0536411379 3.9090547,0.0532472648 C3.90537856,0.0522844639 3.90174617,0.0518468271 3.89811379,0.0511028446 C3.89246827,0.0498774617 3.88682276,0.0486520788 3.88117724,0.0477768053 C3.87605689,0.0469015317 3.87102407,0.0463763676 3.86590372,0.0458074398 C3.85995186,0.0450634573 3.85404376,0.0444507659 3.84813567,0.0441444201 C3.84332166,0.0438818381 3.83855142,0.0438380744 3.83373742,0.043750547 C3.8276105,0.043619256 3.82152735,0.0435754923 3.8154442,0.0438818381 C3.81093654,0.0440568928 3.80642888,0.0444507659 3.80196499,0.0448008753 C3.79570678,0.0453260394 3.78944858,0.0459387309 3.7832779,0.0468140044 C3.77907659,0.0474704595 3.77491904,0.048214442 3.77076149,0.0489584245 C3.76437199,0.0500962801 3.75807002,0.0513654267 3.75181182,0.0528971554 C3.74791685,0.0538161926 3.74410941,0.0549540481 3.74025821,0.0560043764 C3.73386871,0.0578424508 3.72756674,0.0597242888 3.72126477,0.0619124726 C3.71771991,0.0631816193 3.71421882,0.0645382932 3.71067396,0.0659824945 C3.70432823,0.0683894967 3.69802626,0.0709715536 3.69185558,0.0738161926 C3.6885733,0.0753479212 3.68537856,0.0770547046 3.68214004,0.0786739606 C3.67596937,0.0817374179 3.66988621,0.0848884026 3.66393435,0.0884332604 C3.66082713,0.0902275711 3.6578512,0.0921531729 3.65478775,0.0940787746 C3.64892341,0.0977549234 3.64314661,0.1015186 3.63754486,0.105588621 C3.63461269,0.107733042 3.63176805,0.109964989 3.62887965,0.112196937 C3.62349672,0.116354486 3.61815755,0.120643326 3.6130372,0.125107221 C3.6101488,0.127689278 3.60739168,0.130315098 3.60459081,0.132940919 C3.59977681,0.137492341 3.59500656,0.142043764 3.59045514,0.146857768 C3.5876105,0.149921225 3.58494092,0.153028446 3.58218381,0.156179431 C3.57802626,0.160949672 3.57391247,0.165763676 3.57001751,0.170796499 C3.56721663,0.174428884 3.56459081,0.178148796 3.56192123,0.181868709 C3.55846389,0.186726477 3.55505033,0.191671772 3.55189934,0.196660832 C3.549186,0.200993435 3.54669147,0.205413567 3.54419694,0.209877462 C3.54143982,0.214691466 3.53868271,0.219592998 3.53618818,0.224669584 C3.53373742,0.229527352 3.53154923,0.234560175 3.52931729,0.239592998 C3.5271291,0.244582057 3.52498468,0.249483589 3.52305908,0.254560175 C3.52104595,0.259899344 3.5192954,0.265369803 3.51750109,0.270884026 C3.51636324,0.274428884 3.5149628,0.277754923 3.51391247,0.281343545 C3.51338731,0.283137856 3.51316849,0.284932166 3.51268709,0.286682713 C3.51220569,0.288477024 3.51150547,0.290183807 3.51106783,0.291978118 L3.13575055,1.79355361 L2.07898906,1.79355361 C0.935050328,1.79355361 0.00410940919,2.72235011 0.000345733042,3.86545733 C0.000301969365,3.86786433 -4.37636762e-06,3.87005252 -4.37636762e-06,3.87237199 L-4.37636762e-06,15.2509278 C-4.37636762e-06,15.4321532 0.147479212,15.5791554 0.328223195,15.5791554 C0.509404814,15.5791554 0.656450766,15.4321532 0.656450766,15.2509278 L0.656450766,5.38628884 C1.02861707,5.73622319 1.52901094,5.9512779 2.07898906,5.9512779 L19.0155755,5.9512779 C19.0159694,5.9512779 19.0163195,5.95123414 19.0167133,5.95123414 C19.8004333,5.95189059 20.437895,6.58965864 20.437895,7.37359737 L20.437895,9.67136543 L16.8268665,9.67136543 C16.8266477,9.67136543 16.8264726,9.67140919 16.8262538,9.67140919 C16.8167571,9.67140919 16.8073042,9.67202188 16.797895,9.67280963 C16.7874354,9.67377243 16.7771072,9.67521663 16.766954,9.67709847 C16.7654223,9.67740481 16.7639344,9.67753611 16.7624026,9.67779869 C16.7538249,9.67954923 16.7454223,9.68178118 16.7370635,9.68414442 C16.7352254,9.68471335 16.7333435,9.68501969 16.7315492,9.68558862 C16.7241094,9.68786433 16.7168884,9.69057768 16.7096674,9.69333479 C16.7069103,9.69438512 16.7041094,9.69526039 16.7013523,9.69639825 C16.6953129,9.69889278 16.6894923,9.70182495 16.6836718,9.70471335 C16.6798206,9.70655142 16.6759256,9.70825821 16.6721619,9.71022757 C16.6676105,9.71259081 16.6633217,9.71534792 16.6589453,9.71797374 C16.6540875,9.72086214 16.6491422,9.72366302 16.6444158,9.72685777 C16.641221,9.72891466 16.6382888,9.73132166 16.6352254,9.73355361 C16.6296236,9.73762363 16.6239781,9.74156236 16.6186389,9.74598249 C16.6163195,9.7479081 16.6141751,9.75005252 16.6119431,9.75206565 C16.6062101,9.75701094 16.600477,9.76195624 16.5950503,9.76738293 C16.5918556,9.77062144 16.5889672,9.77412254 16.5859475,9.77740481 C16.5817024,9.782 16.577326,9.78650766 16.5732998,9.79140919 C16.5665164,9.79972429 16.5601707,9.80825821 16.5542188,9.81714223 C16.5540875,9.81727352 16.5539562,9.81744858 16.5538687,9.8176674 L14.8034092,12.4435317 C14.7911991,12.4618249 14.7808709,12.4811685 14.7726871,12.5013435 C14.7695799,12.5088709 14.7670853,12.5165733 14.7645908,12.5241882 C14.7638468,12.5264639 14.762884,12.5286958 14.7621838,12.5310591 C14.759733,12.5391116 14.7578512,12.5473392 14.7560569,12.5554354 C14.7555755,12.5575799 14.7549628,12.5596805 14.7545252,12.5618249 C14.753081,12.569221 14.7521182,12.5766171 14.7511991,12.5840131 C14.7508053,12.5871204 14.7501926,12.5902713 14.7498862,12.5934661 C14.7492735,12.5995492 14.7491422,12.6056324 14.7489234,12.6117155 C14.7487046,12.6163107 14.7483107,12.6209497 14.7483107,12.6256324 C14.7483107,12.63014 14.7487046,12.6346477 14.7488796,12.6391554 C14.7490985,12.6453698 14.7492735,12.6516718 14.7498862,12.6578425 C14.7501926,12.6609059 14.7507615,12.6638818 14.7511554,12.6669015 C14.7521182,12.6744289 14.753081,12.6819562 14.7545689,12.6894398 C14.7549628,12.6915405 14.7555755,12.6935536 14.7560569,12.6955667 C14.7578512,12.7037943 14.7597768,12.7120219 14.7622276,12.7202057 C14.7629278,12.7225689 14.7638906,12.7247571 14.7646346,12.7271204 C14.7671291,12.7347352 14.7696236,12.7424376 14.7727309,12.749965 C14.7809584,12.7700963 14.7912867,12.7894836 14.8035405,12.8078206 L16.5539562,15.433291 C16.5540438,15.4334223 16.5541313,15.4335098 16.5542188,15.4336411 C16.5612648,15.4441007 16.5689672,15.4541225 16.5771072,15.463663 C16.5797768,15.4668578 16.5826214,15.4697462 16.5853786,15.4727221 C16.5909365,15.4788053 16.5967133,15.4846696 16.602709,15.4903151 C16.6062538,15.4936411 16.6097549,15.4968796 16.6133435,15.5000306 C16.619733,15.5055011 16.6263414,15.5106214 16.6331247,15.5155667 C16.6361882,15.5178425 16.6391204,15.5202495 16.6422276,15.5223501 C16.6520744,15.5290897 16.6622713,15.5352166 16.6728184,15.5408184 C16.675488,15.5422188 16.6782451,15.5434442 16.6809147,15.5447133 C16.6893173,15.5489584 16.697895,15.5528534 16.7066915,15.5563107 C16.710105,15.5576236 16.7135186,15.558849 16.7169759,15.5601182 C16.7253348,15.5630503 16.7338249,15.5657199 16.7424902,15.5679956 C16.746035,15.5689584 16.7495361,15.5698775 16.7531247,15.5707965 C16.7620088,15.5728534 16.7710241,15.5744289 16.7801707,15.575698 C16.7834967,15.5762232 16.786779,15.5768359 16.790105,15.5772298 C16.8013961,15.5784989 16.8128621,15.5791991 16.8245033,15.5792867 C16.8254223,15.5792867 16.8263414,15.5794617 16.8273042,15.5794617 C16.8274792,15.5794617 16.827698,15.5794179 16.8279168,15.5794179 L20.4380263,15.5794179 L20.4380263,17.8773611 C20.4380263,18.6617374 19.7999519,19.2998118 19.0157068,19.2998118 L2.07916411,19.2998118 C1.29491904,19.2998118 0.656844639,18.6617374 0.656844639,17.8773611 C0.656844639,17.875698 0.656625821,17.874035 0.656582057,17.8723282 L0.656582057,16.5640131 C0.656582057,16.3832691 0.509536105,16.2357856 0.328354486,16.2357856 C0.147610503,16.2357856 0.000126914661,16.3832691 0.000126914661,16.5640131 L0.000126914661,17.8773611 C0.000126914661,17.8807746 0.000520787746,17.8841007 0.000652078775,17.8874705 C0.00612253829,19.0290897 0.936319475,19.956267 2.07916411,19.956267 L19.0157068,19.956267 C20.1618337,19.956267 21.0943063,19.0238381 21.0944814,17.8777549 L21.0944814,17.8775799 L21.0944814,15.5794179 L21.4225339,15.5794179 C21.9653786,15.5794179 22.4070416,15.1377549 22.4070416,14.5949103 L22.4070416,9.34291904 C22.4069103,8.8000744 21.9652473,8.35841138 21.4224026,8.35841138 L21.4224026,8.35841138 Z" id="Fill-11" fill="#AF2A56" mask="url(#mask-2)"></path>
                </g>
                <path d="M18.1400044,13.1726346 C17.8383414,13.1726346 17.5929584,12.9272954 17.5929584,12.6255886 C17.5929584,12.3239256 17.8383414,12.0784989 18.1400044,12.0784989 C18.4416674,12.0784989 18.6870503,12.3239256 18.6870503,12.6255886 C18.6870503,12.9272954 18.4416674,13.1726346 18.1400044,13.1726346 M18.1400044,11.4220438 C17.476372,11.4220438 16.9365033,11.9619562 16.9365033,12.6255886 C16.9365033,13.289221 17.476372,13.8290897 18.1400044,13.8290897 C18.8036368,13.8290897 19.3435055,13.289221 19.3435055,12.6255886 C19.3435055,11.9619562 18.8036368,11.4220438 18.1400044,11.4220438" id="Fill-14" fill="#AF2A56"></path>
                <path d="M12.6975361,11.0414179 C12.6669453,10.9756849 12.6009934,10.9334967 12.5283895,10.9334967 L10.315698,10.9334967 L12.4994179,7.48561926 C12.5358293,7.42815755 12.5380613,7.35529103 12.5052385,7.29572867 C12.4723282,7.23599125 12.4096149,7.19901094 12.3416499,7.19901094 L9.35403501,7.19901094 C9.28326915,7.19901094 9.21867396,7.23896718 9.1869453,7.30229322 L6.38607002,12.9040438 C6.35709847,12.9617243 6.36029322,13.0304333 6.39425383,13.085488 C6.42843326,13.1405864 6.4883895,13.1741532 6.55315974,13.1741532 L8.47324726,13.1741532 L6.38099344,18.1432998 C6.34532604,18.2282888 6.37709847,18.3268884 6.45569803,18.3750284 C6.48593873,18.3935405 6.51954923,18.4024683 6.55298468,18.4024683 C6.60655142,18.4024683 6.65941794,18.3795361 6.69600438,18.3362101 L12.6712341,11.240674 C12.7180613,11.1850066 12.7281707,11.107326 12.6975361,11.0414179" id="Fill-16" fill="#FFFFFF"></path>
            </g>
        </g>
    </g>
</svg>